<svg width="24" height="24" viewBox="0 0 24 24" fill="none" xmlns="http://www.w3.org/2000/svg">
<path d="M5.40613 9.12C6.7036 9.12 8.00108 9.12 9.33787 9.12C9.33787 9.62688 9.33787 10.1338 9.33787 10.656C9.77036 10.656 10.2029 10.656 10.6484 10.656C10.6484 11.1629 10.6484 11.6698 10.6484 12.192C11.0809 12.192 11.5134 12.192 11.959 12.192C11.959 12.6989 11.959 13.2058 11.959 13.728C12.3915 13.728 12.824 13.728 13.2696 13.728C13.2696 13.2211 13.2696 12.7142 13.2696 12.192C13.7021 12.192 14.1346 12.192 14.5802 12.192C14.5802 11.6851 14.5802 11.1782 14.5802 10.656C15.0127 10.656 15.4452 10.656 15.8908 10.656C15.8908 10.1491 15.8908 9.64224 15.8908 9.12C17.1882 9.12 18.4857 9.12 19.8225 9.12C19.8225 9.62688 19.8225 10.1338 19.8225 10.656C19.39 10.656 18.9575 10.656 18.5119 10.656C18.5119 11.1629 18.5119 11.6698 18.5119 12.192C18.0794 12.192 17.6469 12.192 17.2014 12.192C17.2014 12.6989 17.2014 13.2058 17.2014 13.728C16.7689 13.728 16.3364 13.728 15.8908 13.728C15.8908 14.2349 15.8908 14.7418 15.8908 15.264C15.4583 15.264 15.0258 15.264 14.5802 15.264C14.5802 15.7709 14.5802 16.2778 14.5802 16.8C13.2827 16.8 11.9852 16.8 10.6484 16.8C10.6484 16.2931 10.6484 15.7862 10.6484 15.264C10.216 15.264 9.78347 15.264 9.33787 15.264C9.33787 14.7571 9.33787 14.2502 9.33787 13.728C8.90538 13.728 8.47289 13.728 8.02729 13.728C8.02729 13.2211 8.02729 12.7142 8.02729 12.192C7.5948 12.192 7.16231 12.192 6.71671 12.192C6.71671 11.6851 6.71671 11.1782 6.71671 10.656C6.28422 10.656 5.85173 10.656 5.40613 10.656C5.40613 10.1491 5.40613 9.64224 5.40613 9.12Z" fill="black"/>
</svg>
