<svg width="30" height="30" viewBox="0 0 30 30" fill="none" xmlns="http://www.w3.org/2000/svg">
<path d="M30 15C30 23.2843 23.2843 30 15 30C6.71573 30 0 23.2843 0 15C0 6.71573 6.71573 0 15 0C23.2843 0 30 6.71573 30 15Z" fill="#709AD1" fill-opacity="0.53"/>
<path d="M11.7435 3.12772C13.6278 3.12772 15.5121 3.12772 17.4535 3.12772C17.4535 3.62009 17.4535 4.11245 17.4535 4.61974C18.3957 4.61974 19.3378 4.61974 20.3086 4.61974C20.3086 5.11211 20.3086 5.60447 20.3086 6.11176C20.7796 6.11176 21.2507 6.11176 21.7361 6.11176C21.7361 6.60412 21.7361 7.09649 21.7361 7.60377C22.2071 7.60377 22.6782 7.60377 23.1636 7.60377C23.1636 8.58851 23.1636 9.57324 23.1636 10.5878C23.6346 10.5878 24.1057 10.5878 24.5911 10.5878C24.5911 13.542 24.5911 16.4962 24.5911 19.5399C24.12 19.5399 23.6489 19.5399 23.1636 19.5399C23.1636 20.5246 23.1636 21.5094 23.1636 22.5239C22.6925 22.5239 22.2214 22.5239 21.7361 22.5239C21.7361 23.0163 21.7361 23.5087 21.7361 24.016C21.265 24.016 20.7939 24.016 20.3086 24.016C20.3086 24.5083 20.3086 25.0007 20.3086 25.508C19.3664 25.508 18.4242 25.508 17.4535 25.508C17.4535 26.0003 17.4535 26.4927 17.4535 27C15.5692 27 13.6849 27 11.7435 27C11.7435 26.5076 11.7435 26.0153 11.7435 25.508C10.8013 25.508 9.85918 25.508 8.88848 25.508C8.88848 25.0156 8.88848 24.5232 8.88848 24.016C8.4174 24.016 7.94632 24.016 7.46097 24.016C7.46097 23.5236 7.46097 23.0312 7.46097 22.5239C6.98989 22.5239 6.51881 22.5239 6.03346 22.5239C6.03346 21.5392 6.03346 20.5545 6.03346 19.5399C6.97561 19.5399 7.91777 19.5399 8.88848 19.5399C8.88848 20.0323 8.88848 20.5246 8.88848 21.0319C9.83063 21.0319 10.7728 21.0319 11.7435 21.0319C11.7435 20.5396 11.7435 20.0472 11.7435 19.5399C12.2146 19.5399 12.6857 19.5399 13.171 19.5399C13.171 16.5857 13.171 13.6315 13.171 10.5878C12.6999 10.5878 12.2288 10.5878 11.7435 10.5878C11.7435 10.0954 11.7435 9.60308 11.7435 9.09579C10.8013 9.09579 9.85918 9.09579 8.88848 9.09579C8.88848 9.58816 8.88848 10.0805 8.88848 10.5878C7.94632 10.5878 7.00416 10.5878 6.03346 10.5878C6.03346 9.60308 6.03346 8.61835 6.03346 7.60377C6.50454 7.60377 6.97561 7.60377 7.46097 7.60377C7.46097 7.11141 7.46097 6.61904 7.46097 6.11176C7.93204 6.11176 8.40312 6.11176 8.88848 6.11176C8.88848 5.61939 8.88848 5.12703 8.88848 4.61974C9.83063 4.61974 10.7728 4.61974 11.7435 4.61974C11.7435 4.12737 11.7435 3.63501 11.7435 3.12772Z" fill="#99D9EA"/>
<path d="M17.4535 4.61974C18.3957 4.61974 19.3378 4.61974 20.3086 4.61974C20.3086 5.11211 20.3086 5.60447 20.3086 6.11176C20.7796 6.11176 21.2507 6.11176 21.7361 6.11176C21.7361 6.60412 21.7361 7.09649 21.7361 7.60377C22.2071 7.60377 22.6782 7.60377 23.1636 7.60377C23.1636 8.58851 23.1636 9.57324 23.1636 10.5878C23.6346 10.5878 24.1057 10.5878 24.5911 10.5878C24.5911 13.542 24.5911 16.4962 24.5911 19.5399C24.12 19.5399 23.6489 19.5399 23.1636 19.5399C23.1636 20.5246 23.1636 21.5094 23.1636 22.5239C22.6925 22.5239 22.2214 22.5239 21.7361 22.5239C21.7361 23.0163 21.7361 23.5087 21.7361 24.016C21.265 24.016 20.7939 24.016 20.3086 24.016C20.3086 24.5083 20.3086 25.0007 20.3086 25.508C19.3664 25.508 18.4242 25.508 17.4535 25.508C17.4535 24.5233 17.4535 23.5385 17.4535 22.524C17.9246 22.524 18.3957 22.524 18.881 22.524C18.881 22.0316 18.881 21.5392 18.881 21.0319C19.3521 21.0319 19.8232 21.0319 20.3086 21.0319C20.3086 17.093 20.3086 13.1541 20.3086 9.09579C19.8375 9.09579 19.3664 9.09579 18.881 9.09579C18.881 8.60343 18.881 8.11106 18.881 7.60378C18.41 7.60378 17.9389 7.60378 17.4535 7.60378C17.4535 6.61904 17.4535 5.63431 17.4535 4.61974Z" fill="#709AD1"/>
<path d="M6.03346 19.5399C6.97561 19.5399 7.91777 19.5399 8.88848 19.5399C8.88848 20.0323 8.88848 20.5246 8.88848 21.0319C9.83063 21.0319 10.7728 21.0319 11.7435 21.0319C11.7435 21.5243 11.7435 22.0167 11.7435 22.524C10.8013 22.524 9.85918 22.524 8.88848 22.524C8.88848 23.0163 8.88848 23.5087 8.88848 24.016C8.4174 24.016 7.94632 24.016 7.46097 24.016C7.46097 23.5236 7.46097 23.0312 7.46097 22.5239C6.98989 22.5239 6.51881 22.5239 6.03346 22.5239C6.03346 21.5392 6.03346 20.5545 6.03346 19.5399Z" fill="black"/>
<path d="M16.026 12.0798C16.9682 12.0798 17.9103 12.0798 18.881 12.0798C18.881 14.0493 18.881 16.0188 18.881 18.0479C17.9389 18.0479 16.9967 18.0479 16.026 18.0479C16.026 17.0632 16.026 16.0784 16.026 15.0639C16.4971 15.0639 16.9682 15.0639 17.4535 15.0639C17.4535 14.5715 17.4535 14.0791 17.4535 13.5718C16.9825 13.5718 16.5114 13.5718 16.026 13.5718C16.026 13.0795 16.026 12.5871 16.026 12.0798Z" fill="black"/>
<path d="M23.1636 10.5878C23.6346 10.5878 24.1057 10.5878 24.5911 10.5878C24.5911 13.542 24.5911 16.4962 24.5911 19.5399C24.12 19.5399 23.6489 19.5399 23.1636 19.5399C23.1636 16.5857 23.1636 13.6315 23.1636 10.5878Z" fill="black"/>
<path d="M13.171 10.5878C13.6421 10.5878 14.1132 10.5878 14.5985 10.5878C14.5985 13.542 14.5985 16.4962 14.5985 19.5399C14.1274 19.5399 13.6564 19.5399 13.171 19.5399C13.171 16.5857 13.171 13.6315 13.171 10.5878Z" fill="black"/>
<path d="M7.46097 12.0798C7.93204 12.0798 8.40312 12.0798 8.88848 12.0798C8.88848 12.5722 8.88848 13.0646 8.88848 13.5718C9.35955 13.5718 9.83063 13.5718 10.316 13.5718C10.316 14.0642 10.316 14.5566 10.316 15.0639C9.84491 15.0639 9.37383 15.0639 8.88848 15.0639C8.88848 15.5562 8.88848 16.0486 8.88848 16.5559C8.4174 16.5559 7.94632 16.5559 7.46097 16.5559C7.46097 16.0635 7.46097 15.5711 7.46097 15.0639C6.98989 15.0639 6.51881 15.0639 6.03346 15.0639C6.03346 14.5715 6.03346 14.0791 6.03346 13.5718C6.50454 13.5718 6.97561 13.5718 7.46097 13.5718C7.46097 13.0795 7.46097 12.5871 7.46097 12.0798Z" fill="#709AD1"/>
<path d="M11.7435 25.508C13.6278 25.508 15.5121 25.508 17.4535 25.508C17.4535 26.0003 17.4535 26.4927 17.4535 27C15.5692 27 13.6849 27 11.7435 27C11.7435 26.5076 11.7435 26.0153 11.7435 25.508Z" fill="black"/>
<path d="M11.7435 3.12772C13.6278 3.12772 15.5121 3.12772 17.4535 3.12772C17.4535 3.62009 17.4535 4.11245 17.4535 4.61974C15.5692 4.61974 13.6849 4.61974 11.7435 4.61974C11.7435 4.12737 11.7435 3.63501 11.7435 3.12772Z" fill="black"/>
<path d="M6.03346 7.60377C6.50454 7.60377 6.97561 7.60377 7.46097 7.60377C7.46097 8.09614 7.46097 8.58851 7.46097 9.09579C7.93204 9.09579 8.40312 9.09579 8.88848 9.09579C8.88848 9.58816 8.88848 10.0805 8.88848 10.5878C7.94632 10.5878 7.00416 10.5878 6.03346 10.5878C6.03346 9.60308 6.03346 8.61835 6.03346 7.60377Z" fill="black"/>
<path d="M17.4535 24.016C18.3957 24.016 19.3378 24.016 20.3086 24.016C20.3086 24.5083 20.3086 25.0007 20.3086 25.508C19.3664 25.508 18.4242 25.508 17.4535 25.508C17.4535 25.0156 17.4535 24.5233 17.4535 24.016Z" fill="black"/>
<path d="M8.88848 24.016C9.83063 24.016 10.7728 24.016 11.7435 24.016C11.7435 24.5083 11.7435 25.0007 11.7435 25.508C10.8013 25.508 9.85918 25.508 8.88848 25.508C8.88848 25.0156 8.88848 24.5232 8.88848 24.016Z" fill="black"/>
<path d="M14.5985 21.0319C15.5407 21.0319 16.4828 21.0319 17.4535 21.0319C17.4535 21.5243 17.4535 22.0167 17.4535 22.524C16.5114 22.524 15.5692 22.524 14.5985 22.524C14.5985 22.0316 14.5985 21.5392 14.5985 21.0319Z" fill="black"/>
<path d="M8.88848 21.0319C9.83063 21.0319 10.7728 21.0319 11.7435 21.0319C11.7435 21.5243 11.7435 22.0167 11.7435 22.524C10.8013 22.524 9.85918 22.524 8.88848 22.524C8.88848 22.0316 8.88848 21.5392 8.88848 21.0319Z" fill="black"/>
<path d="M21.7361 19.5399C22.2071 19.5399 22.6782 19.5399 23.1636 19.5399C23.1636 20.5246 23.1636 21.5094 23.1636 22.5239C22.6925 22.5239 22.2214 22.5239 21.7361 22.5239C21.7361 21.5392 21.7361 20.5545 21.7361 19.5399Z" fill="black"/>
<path d="M17.4535 18.0479C18.3957 18.0479 19.3378 18.0479 20.3086 18.0479C20.3086 18.5403 20.3086 19.0326 20.3086 19.5399C19.3664 19.5399 18.4242 19.5399 17.4535 19.5399C17.4535 19.0475 17.4535 18.5552 17.4535 18.0479Z" fill="#FEA3B0"/>
<path d="M21.7361 7.60377C22.2071 7.60377 22.6782 7.60377 23.1636 7.60377C23.1636 8.58851 23.1636 9.57324 23.1636 10.5878C22.6925 10.5878 22.2214 10.5878 21.7361 10.5878C21.7361 9.60308 21.7361 8.61835 21.7361 7.60377Z" fill="black"/>
<path d="M8.88848 7.60378C9.83063 7.60378 10.7728 7.60378 11.7435 7.60378C11.7435 8.09614 11.7435 8.58851 11.7435 9.09579C10.8013 9.09579 9.85918 9.09579 8.88848 9.09579C8.88848 8.60343 8.88848 8.11106 8.88848 7.60378Z" fill="black"/>
<path d="M17.4535 4.61974C18.3957 4.61974 19.3378 4.61974 20.3086 4.61974C20.3086 5.11211 20.3086 5.60447 20.3086 6.11176C19.3664 6.11176 18.4242 6.11176 17.4535 6.11176C17.4535 5.61939 17.4535 5.12703 17.4535 4.61974Z" fill="black"/>
<path d="M8.88848 4.61974C9.83063 4.61974 10.7728 4.61974 11.7435 4.61974C11.7435 5.11211 11.7435 5.60447 11.7435 6.11176C10.8013 6.11176 9.85918 6.11176 8.88848 6.11176C8.88848 5.61939 8.88848 5.12703 8.88848 4.61974Z" fill="black"/>
<path d="M16.026 24.016C16.4971 24.016 16.9682 24.016 17.4535 24.016C17.4535 24.5083 17.4535 25.0007 17.4535 25.508C16.9825 25.508 16.5114 25.508 16.026 25.508C16.026 25.0156 16.026 24.5233 16.026 24.016Z" fill="#709AD1"/>
<path d="M20.3086 22.5239C20.7796 22.5239 21.2507 22.5239 21.7361 22.5239C21.7361 23.0163 21.7361 23.5087 21.7361 24.016C21.265 24.016 20.7939 24.016 20.3086 24.016C20.3086 23.5236 20.3086 23.0312 20.3086 22.5239Z" fill="black"/>
<path d="M7.46097 22.5239C7.93204 22.5239 8.40312 22.524 8.88848 22.524C8.88848 23.0163 8.88848 23.5087 8.88848 24.016C8.4174 24.016 7.94632 24.016 7.46097 24.016C7.46097 23.5236 7.46097 23.0312 7.46097 22.5239Z" fill="black"/>
<path d="M17.4535 21.0319C17.9246 21.0319 18.3957 21.0319 18.881 21.0319C18.881 21.5243 18.881 22.0167 18.881 22.524C18.41 22.524 17.9389 22.524 17.4535 22.524C17.4535 22.0316 17.4535 21.5392 17.4535 21.0319Z" fill="#99D9EA"/>
<path d="M7.46097 21.0319C7.93204 21.0319 8.40312 21.0319 8.88848 21.0319C8.88848 21.5243 8.88848 22.0167 8.88848 22.524C8.4174 22.524 7.94632 22.5239 7.46097 22.5239C7.46097 22.0316 7.46097 21.5392 7.46097 21.0319Z" fill="#99D9EA"/>
<path d="M18.881 19.5399C19.3521 19.5399 19.8232 19.5399 20.3086 19.5399C20.3086 20.0323 20.3086 20.5246 20.3086 21.0319C19.8375 21.0319 19.3664 21.0319 18.881 21.0319C18.881 20.5396 18.881 20.0472 18.881 19.5399Z" fill="#99D9EA"/>
<path d="M17.4535 19.5399C17.9246 19.5399 18.3957 19.5399 18.881 19.5399C18.881 20.0323 18.881 20.5246 18.881 21.0319C18.41 21.0319 17.9389 21.0319 17.4535 21.0319C17.4535 20.5396 17.4535 20.0472 17.4535 19.5399Z" fill="black"/>
<path d="M11.7435 19.5399C12.2146 19.5399 12.6857 19.5399 13.171 19.5399C13.171 20.0323 13.171 20.5246 13.171 21.0319C12.6999 21.0319 12.2288 21.0319 11.7435 21.0319C11.7435 20.5396 11.7435 20.0472 11.7435 19.5399Z" fill="black"/>
<path d="M16.026 15.0639C16.4971 15.0639 16.9682 15.0639 17.4535 15.0639C17.4535 15.5562 17.4535 16.0486 17.4535 16.5559C16.9825 16.5559 16.5114 16.5559 16.026 16.5559C16.026 16.0635 16.026 15.5711 16.026 15.0639Z" fill="#464645"/>
<path d="M7.46097 15.0639C7.93204 15.0639 8.40312 15.0639 8.88848 15.0639C8.88848 15.5562 8.88848 16.0486 8.88848 16.5559C8.4174 16.5559 7.94632 16.5559 7.46097 16.5559C7.46097 16.0635 7.46097 15.5711 7.46097 15.0639Z" fill="black"/>
<path d="M16.026 13.5718C16.4971 13.5718 16.9682 13.5718 17.4535 13.5718C17.4535 14.0642 17.4535 14.5566 17.4535 15.0639C16.9825 15.0639 16.5114 15.0639 16.026 15.0639C16.026 14.5715 16.026 14.0791 16.026 13.5718Z" fill="white"/>
<path d="M8.88848 13.5718C9.35955 13.5718 9.83063 13.5718 10.316 13.5718C10.316 14.0642 10.316 14.5566 10.316 15.0639C9.84491 15.0639 9.37383 15.0639 8.88848 15.0639C8.88848 14.5715 8.88848 14.0791 8.88848 13.5718Z" fill="black"/>
<path d="M6.03346 13.5718C6.50454 13.5718 6.97561 13.5718 7.46097 13.5718C7.46097 14.0642 7.46097 14.5566 7.46097 15.0639C6.98989 15.0639 6.51881 15.0639 6.03346 15.0639C6.03346 14.5715 6.03346 14.0791 6.03346 13.5718Z" fill="black"/>
<path d="M7.46097 12.0798C7.93204 12.0798 8.40312 12.0798 8.88848 12.0798C8.88848 12.5722 8.88848 13.0646 8.88848 13.5718C8.4174 13.5718 7.94632 13.5718 7.46097 13.5718C7.46097 13.0795 7.46097 12.5871 7.46097 12.0798Z" fill="black"/>
<path d="M11.7435 9.09579C12.2146 9.09579 12.6856 9.09579 13.171 9.09579C13.171 9.58816 13.171 10.0805 13.171 10.5878C12.6999 10.5878 12.2288 10.5878 11.7435 10.5878C11.7435 10.0954 11.7435 9.60308 11.7435 9.09579Z" fill="black"/>
<path d="M20.3086 6.11176C20.7796 6.11176 21.2507 6.11176 21.7361 6.11176C21.7361 6.60412 21.7361 7.09649 21.7361 7.60377C21.265 7.60377 20.7939 7.60378 20.3086 7.60378C20.3086 7.11141 20.3086 6.61904 20.3086 6.11176Z" fill="black"/>
<path d="M7.46097 6.11176C7.93204 6.11176 8.40312 6.11176 8.88848 6.11176C8.88848 6.60412 8.88848 7.09649 8.88848 7.60378C8.4174 7.60378 7.94632 7.60377 7.46097 7.60377C7.46097 7.11141 7.46097 6.61904 7.46097 6.11176Z" fill="black"/>
<path d="M16.026 4.61974C16.4971 4.61974 16.9682 4.61974 17.4535 4.61974C17.4535 5.11211 17.4535 5.60447 17.4535 6.11176C16.9825 6.11176 16.5114 6.11176 16.026 6.11176C16.026 5.61939 16.026 5.12703 16.026 4.61974Z" fill="#709AD1"/>
</svg>
