<svg width="30" height="30" viewBox="0 0 30 30" fill="none" xmlns="http://www.w3.org/2000/svg">
<path d="M30 15C30 23.2843 23.2843 30 15 30C6.71573 30 0 23.2843 0 15C0 6.71573 6.71573 0 15 0C23.2843 0 30 6.71573 30 15Z" fill="#F0ECEC"/>
<path d="M12.0594 8.49966C13.6437 8.49966 15.228 8.49966 16.8604 8.49966C16.8604 8.81443 16.8604 9.1292 16.8604 9.4535C17.4941 9.4535 18.1278 9.4535 18.7808 9.4535C18.7808 9.76827 18.7808 10.083 18.7808 10.4073C19.0976 10.4073 19.4145 10.4073 19.741 10.4073C19.741 10.7221 19.741 11.0369 19.741 11.3612C20.0578 11.3612 20.3747 11.3612 20.7012 11.3612C20.7012 11.9907 20.7012 12.6203 20.7012 13.2689C21.018 13.2689 21.3349 13.2689 21.6614 13.2689C21.6614 14.8427 21.6614 16.4165 21.6614 18.0381C21.3445 18.0381 21.0276 18.0381 20.7012 18.0381C20.7012 18.6676 20.7012 19.2971 20.7012 19.9457C20.3843 19.9457 20.0674 19.9457 19.741 19.9457C19.741 20.2605 19.741 20.5753 19.741 20.8996C19.4241 20.8996 19.1072 20.8996 18.7808 20.8996C18.7808 21.2144 18.7808 21.5291 18.7808 21.8534C18.147 21.8534 17.5133 21.8534 16.8604 21.8534C16.8604 22.1682 16.8604 22.483 16.8604 22.8073C15.2761 22.8073 13.6917 22.8073 12.0594 22.8073C12.0594 22.4925 12.0594 22.1777 12.0594 21.8534C11.4257 21.8534 10.7919 21.8534 10.139 21.8534C10.139 21.5387 10.139 21.2239 10.139 20.8996C9.82212 20.8996 9.50525 20.8996 9.17879 20.8996C9.17879 20.5848 9.17879 20.2701 9.17879 19.9457C8.86192 19.9457 8.54505 19.9457 8.21859 19.9457C8.21859 19.3162 8.21859 18.6867 8.21859 18.0381C7.90172 18.0381 7.58485 18.0381 7.25839 18.0381C7.25839 16.4642 7.25839 14.8904 7.25839 13.2689C7.57525 13.2689 7.89212 13.2689 8.21859 13.2689C8.21859 12.6393 8.21859 12.0098 8.21859 11.3612C8.53545 11.3612 8.85232 11.3612 9.17879 11.3612C9.17879 11.0464 9.17879 10.7316 9.17879 10.4073C9.49565 10.4073 9.81252 10.4073 10.139 10.4073C10.139 10.0926 10.139 9.77781 10.139 9.4535C10.7727 9.4535 11.4064 9.4535 12.0594 9.4535C12.0594 9.13874 12.0594 8.82397 12.0594 8.49966Z" fill="#FFD152"/>
<path d="M16.8604 9.4535C17.4941 9.4535 18.1278 9.4535 18.7808 9.4535C18.7808 9.76827 18.7808 10.083 18.7808 10.4073C19.0976 10.4073 19.4145 10.4073 19.741 10.4073C19.741 10.7221 19.741 11.0369 19.741 11.3612C20.0578 11.3612 20.3747 11.3612 20.7012 11.3612C20.7012 11.9907 20.7012 12.6203 20.7012 13.2689C21.018 13.2689 21.3349 13.2689 21.6614 13.2689C21.6614 14.8427 21.6614 16.4165 21.6614 18.0381C21.3445 18.0381 21.0276 18.0381 20.7012 18.0381C20.7012 18.6676 20.7012 19.2971 20.7012 19.9457C20.3843 19.9457 20.0674 19.9457 19.741 19.9457C19.741 20.2605 19.741 20.5753 19.741 20.8996C19.4241 20.8996 19.1072 20.8996 18.7808 20.8996C18.7808 21.2144 18.7808 21.5291 18.7808 21.8534C18.147 21.8534 17.5133 21.8534 16.8604 21.8534C16.8604 22.1682 16.8604 22.483 16.8604 22.8073C15.2761 22.8073 13.6917 22.8073 12.0594 22.8073C12.0594 22.4925 12.0594 22.1777 12.0594 21.8534C11.4257 21.8534 10.7919 21.8534 10.139 21.8534C10.139 21.5387 10.139 21.2239 10.139 20.8996C12.357 20.8996 14.5751 20.8996 16.8604 20.8996C16.8604 20.5848 16.8604 20.2701 16.8604 19.9457C17.1772 19.9457 17.4941 19.9457 17.8206 19.9457C17.8206 19.631 17.8206 19.3162 17.8206 18.9919C18.1374 18.9919 18.4543 18.9919 18.7808 18.9919C18.7808 16.7885 18.7808 14.5852 18.7808 12.315C18.4639 12.315 18.147 12.315 17.8206 12.315C17.8206 12.0003 17.8206 11.6855 17.8206 11.3612C17.5037 11.3612 17.1868 11.3612 16.8604 11.3612C16.8604 10.7316 16.8604 10.1021 16.8604 9.4535Z" fill="#FEB300"/>
<path d="M20.7012 20.8996C21.3349 20.8996 21.9686 20.8996 22.6216 20.8996C22.6216 21.2144 22.6216 21.5291 22.6216 21.8534C22.9384 21.8534 23.2553 21.8534 23.5818 21.8534C23.5818 22.1682 23.5818 22.483 23.5818 22.8073C23.8986 22.8073 24.2155 22.8073 24.542 22.8073C24.542 23.122 24.542 23.4368 24.542 23.7611C24.2251 23.7611 23.9082 23.7611 23.5818 23.7611C23.5818 24.0759 23.5818 24.3906 23.5818 24.7149C22.948 24.7149 22.3143 24.7149 21.6614 24.7149C21.6614 24.4002 21.6614 24.0854 21.6614 23.7611C21.3445 23.7611 21.0276 23.7611 20.7012 23.7611C20.7012 23.4463 20.7012 23.1316 20.7012 22.8073C20.3843 22.8073 20.0674 22.8073 19.741 22.8073C19.741 22.4925 19.741 22.1777 19.741 21.8534C20.0578 21.8534 20.3747 21.8534 20.7012 21.8534C20.7012 21.5387 20.7012 21.2239 20.7012 20.8996Z" fill="#FFD152"/>
<path d="M6.29819 20.8996C6.93192 20.8996 7.56565 20.8996 8.21859 20.8996C8.21859 21.2144 8.21859 21.5291 8.21859 21.8534C8.53545 21.8534 8.85232 21.8534 9.17879 21.8534C9.17879 22.1682 9.17879 22.483 9.17879 22.8073C8.86192 22.8073 8.54505 22.8073 8.21859 22.8073C8.21859 23.122 8.21859 23.4368 8.21859 23.7611C7.90172 23.7611 7.58485 23.7611 7.25839 23.7611C7.25839 24.0759 7.25839 24.3906 7.25839 24.7149C6.62466 24.7149 5.99092 24.7149 5.33799 24.7149C5.33799 24.4002 5.33799 24.0854 5.33799 23.7611C5.02112 23.7611 4.70426 23.7611 4.37779 23.7611C4.37779 23.4463 4.37779 23.1316 4.37779 22.8073C4.69466 22.8073 5.01152 22.8073 5.33799 22.8073C5.33799 22.4925 5.33799 22.1777 5.33799 21.8534C5.65485 21.8534 5.97172 21.8534 6.29819 21.8534C6.29819 21.5387 6.29819 21.2239 6.29819 20.8996Z" fill="#FFD152"/>
<path d="M10.139 20.8996C12.357 20.8996 14.5751 20.8996 16.8604 20.8996C16.8604 21.5291 16.8604 22.1587 16.8604 22.8073C15.2761 22.8073 13.6917 22.8073 12.0594 22.8073C12.0594 22.4925 12.0594 22.1777 12.0594 21.8534C11.4257 21.8534 10.7919 21.8534 10.139 21.8534C10.139 21.5387 10.139 21.2239 10.139 20.8996Z" fill="#FEB300"/>
<path d="M21.6614 6.59198C22.2951 6.59198 22.9288 6.59198 23.5818 6.59198C23.5818 6.90675 23.5818 7.22152 23.5818 7.54582C23.8986 7.54582 24.2155 7.54582 24.542 7.54582C24.542 7.86059 24.542 8.17536 24.542 8.49966C24.2251 8.49966 23.9082 8.49966 23.5818 8.49966C23.5818 8.81443 23.5818 9.1292 23.5818 9.4535C23.2649 9.4535 22.948 9.4535 22.6216 9.4535C22.6216 9.76827 22.6216 10.083 22.6216 10.4073C21.9878 10.4073 21.3541 10.4073 20.7012 10.4073C20.7012 10.0926 20.7012 9.77781 20.7012 9.4535C20.3843 9.4535 20.0674 9.4535 19.741 9.4535C19.741 9.13874 19.741 8.82397 19.741 8.49966C20.0578 8.49966 20.3747 8.49966 20.7012 8.49966C20.7012 8.1849 20.7012 7.87013 20.7012 7.54582C21.018 7.54582 21.3349 7.54582 21.6614 7.54582C21.6614 7.23106 21.6614 6.91629 21.6614 6.59198Z" fill="#FFD152"/>
<path d="M5.33799 6.59198C5.97172 6.59198 6.60545 6.59198 7.25839 6.59198C7.25839 6.90675 7.25839 7.22152 7.25839 7.54582C7.57525 7.54582 7.89212 7.54582 8.21859 7.54582C8.21859 7.86059 8.21859 8.17536 8.21859 8.49966C8.53545 8.49966 8.85232 8.49966 9.17879 8.49966C9.17879 8.81443 9.17879 9.1292 9.17879 9.4535C8.86192 9.4535 8.54505 9.4535 8.21859 9.4535C8.21859 9.76827 8.21859 10.083 8.21859 10.4073C7.58485 10.4073 6.95112 10.4073 6.29819 10.4073C6.29819 10.0926 6.29819 9.77781 6.29819 9.4535C5.98132 9.4535 5.66446 9.4535 5.33799 9.4535C5.33799 9.13874 5.33799 8.82397 5.33799 8.49966C5.02112 8.49966 4.70426 8.49966 4.37779 8.49966C4.37779 8.1849 4.37779 7.87013 4.37779 7.54582C4.69466 7.54582 5.01152 7.54582 5.33799 7.54582C5.33799 7.23106 5.33799 6.91629 5.33799 6.59198Z" fill="#FFD152"/>
<path d="M13.9798 23.7611C14.2966 23.7611 14.6135 23.7611 14.94 23.7611C14.94 24.0759 14.94 24.3906 14.94 24.7149C15.2568 24.7149 15.5737 24.7149 15.9002 24.7149C15.9002 25.3445 15.9002 25.974 15.9002 26.6226C15.5833 26.6226 15.2664 26.6226 14.94 26.6226C14.94 26.9374 14.94 27.2522 14.94 27.5765C14.6231 27.5765 14.3062 27.5765 13.9798 27.5765C13.9798 27.2617 13.9798 26.9469 13.9798 26.6226C13.6629 26.6226 13.346 26.6226 13.0196 26.6226C13.0196 25.9931 13.0196 25.3636 13.0196 24.7149C13.3364 24.7149 13.6533 24.7149 13.9798 24.7149C13.9798 24.4002 13.9798 24.0854 13.9798 23.7611Z" fill="#FFD152"/>
<path d="M23.5818 14.2227C24.2155 14.2227 24.8492 14.2227 25.5022 14.2227C25.5022 14.5375 25.5022 14.8522 25.5022 15.1765C25.819 15.1765 26.1359 15.1765 26.4624 15.1765C26.4624 15.4913 26.4624 15.8061 26.4624 16.1304C26.1455 16.1304 25.8286 16.1304 25.5022 16.1304C25.5022 16.4452 25.5022 16.7599 25.5022 17.0842C24.8684 17.0842 24.2347 17.0842 23.5818 17.0842C23.5818 16.7695 23.5818 16.4547 23.5818 16.1304C23.2649 16.1304 22.948 16.1304 22.6216 16.1304C22.6216 15.8156 22.6216 15.5008 22.6216 15.1765C22.9384 15.1765 23.2553 15.1765 23.5818 15.1765C23.5818 14.8618 23.5818 14.547 23.5818 14.2227Z" fill="#FFD152"/>
<path d="M3.41759 14.2227C4.05132 14.2227 4.68505 14.2227 5.33799 14.2227C5.33799 14.5375 5.33799 14.8522 5.33799 15.1765C5.65485 15.1765 5.97172 15.1765 6.29819 15.1765C6.29819 15.4913 6.29819 15.8061 6.29819 16.1304C5.98132 16.1304 5.66446 16.1304 5.33799 16.1304C5.33799 16.4452 5.33799 16.7599 5.33799 17.0842C4.70426 17.0842 4.07053 17.0842 3.41759 17.0842C3.41759 16.7695 3.41759 16.4547 3.41759 16.1304C3.10072 16.1304 2.78386 16.1304 2.45739 16.1304C2.45739 15.8156 2.45739 15.5008 2.45739 15.1765C2.77426 15.1765 3.09112 15.1765 3.41759 15.1765C3.41759 14.8618 3.41759 14.547 3.41759 14.2227Z" fill="#FEB300"/>
<path d="M13.9798 2.77662C14.2966 2.77662 14.6135 2.77662 14.94 2.77662C14.94 3.09139 14.94 3.40616 14.94 3.73046C15.2568 3.73046 15.5737 3.73046 15.9002 3.73046C15.9002 4.36 15.9002 4.98953 15.9002 5.63814C15.5833 5.63814 15.2664 5.63814 14.94 5.63814C14.94 5.95291 14.94 6.26768 14.94 6.59198C14.6231 6.59198 14.3062 6.59198 13.9798 6.59198C13.9798 6.27722 13.9798 5.96245 13.9798 5.63814C13.6629 5.63814 13.346 5.63814 13.0196 5.63814C13.0196 5.00861 13.0196 4.37907 13.0196 3.73046C13.3364 3.73046 13.6533 3.73046 13.9798 3.73046C13.9798 3.4157 13.9798 3.10093 13.9798 2.77662Z" fill="#FEB300"/>
<path d="M14.94 13.2689C15.5737 13.2689 16.2074 13.2689 16.8604 13.2689C16.8604 14.5279 16.8604 15.787 16.8604 17.0842C16.2266 17.0842 15.5929 17.0842 14.94 17.0842C14.94 16.4547 14.94 15.8252 14.94 15.1765C15.2568 15.1765 15.5737 15.1765 15.9002 15.1765C15.9002 14.8618 15.9002 14.547 15.9002 14.2227C15.5833 14.2227 15.2664 14.2227 14.94 14.2227C14.94 13.9079 14.94 13.5932 14.94 13.2689Z" fill="black"/>
<path d="M10.139 13.2689C10.7727 13.2689 11.4064 13.2689 12.0594 13.2689C12.0594 13.5836 12.0594 13.8984 12.0594 14.2227C11.7425 14.2227 11.4257 14.2227 11.0992 14.2227C11.0992 14.5375 11.0992 14.8522 11.0992 15.1765C11.416 15.1765 11.7329 15.1765 12.0594 15.1765C12.0594 15.8061 12.0594 16.4356 12.0594 17.0842C11.4257 17.0842 10.7919 17.0842 10.139 17.0842C10.139 15.8252 10.139 14.5661 10.139 13.2689Z" fill="black"/>
<path d="M5.33799 21.8534C5.65485 21.8534 5.97172 21.8534 6.29819 21.8534C6.29819 22.483 6.29819 23.1125 6.29819 23.7611C6.61505 23.7611 6.93192 23.7611 7.25839 23.7611C7.25839 24.0759 7.25839 24.3906 7.25839 24.7149C6.62466 24.7149 5.99092 24.7149 5.33799 24.7149C5.33799 24.4002 5.33799 24.0854 5.33799 23.7611C5.02112 23.7611 4.70426 23.7611 4.37779 23.7611C4.37779 23.4463 4.37779 23.1316 4.37779 22.8073C4.69466 22.8073 5.01152 22.8073 5.33799 22.8073C5.33799 22.4925 5.33799 22.1777 5.33799 21.8534Z" fill="#FEB300"/>
<path d="M12.0594 21.8534C13.6437 21.8534 15.228 21.8534 16.8604 21.8534C16.8604 22.1682 16.8604 22.483 16.8604 22.8073C15.2761 22.8073 13.6917 22.8073 12.0594 22.8073C12.0594 22.4925 12.0594 22.1777 12.0594 21.8534Z" fill="black"/>
<path d="M20.7012 13.2689C21.018 13.2689 21.3349 13.2689 21.6614 13.2689C21.6614 14.8427 21.6614 16.4165 21.6614 18.0381C21.3445 18.0381 21.0276 18.0381 20.7012 18.0381C20.7012 16.4642 20.7012 14.8904 20.7012 13.2689Z" fill="black"/>
<path d="M7.25839 13.2689C7.57525 13.2689 7.89212 13.2689 8.21859 13.2689C8.21859 14.8427 8.21859 16.4165 8.21859 18.0381C7.90172 18.0381 7.58485 18.0381 7.25839 18.0381C7.25839 16.4642 7.25839 14.8904 7.25839 13.2689Z" fill="black"/>
<path d="M12.0594 8.49966C13.6437 8.49966 15.228 8.49966 16.8604 8.49966C16.8604 8.81443 16.8604 9.1292 16.8604 9.4535C15.2761 9.4535 13.6917 9.4535 12.0594 9.4535C12.0594 9.13874 12.0594 8.82397 12.0594 8.49966Z" fill="black"/>
<path d="M5.33799 6.59198C5.97172 6.59198 6.60545 6.59198 7.25839 6.59198C7.25839 6.90675 7.25839 7.22152 7.25839 7.54582C6.94152 7.54582 6.62466 7.54582 6.29819 7.54582C6.29819 8.17536 6.29819 8.80489 6.29819 9.4535C5.98132 9.4535 5.66446 9.4535 5.33799 9.4535C5.33799 9.13874 5.33799 8.82397 5.33799 8.49966C5.02112 8.49966 4.70426 8.49966 4.37779 8.49966C4.37779 8.1849 4.37779 7.87013 4.37779 7.54582C4.69466 7.54582 5.01152 7.54582 5.33799 7.54582C5.33799 7.23106 5.33799 6.91629 5.33799 6.59198Z" fill="#FEB300"/>
<path d="M14.94 24.7149C15.2568 24.7149 15.5737 24.7149 15.9002 24.7149C15.9002 25.3445 15.9002 25.974 15.9002 26.6226C15.5833 26.6226 15.2664 26.6226 14.94 26.6226C14.94 25.9931 14.94 25.3636 14.94 24.7149Z" fill="black"/>
<path d="M13.0196 24.7149C13.3364 24.7149 13.6533 24.7149 13.9798 24.7149C13.9798 25.3445 13.9798 25.974 13.9798 26.6226C13.6629 26.6226 13.346 26.6226 13.0196 26.6226C13.0196 25.9931 13.0196 25.3636 13.0196 24.7149Z" fill="black"/>
<path d="M21.6614 23.7611C22.2951 23.7611 22.9288 23.7611 23.5818 23.7611C23.5818 24.0759 23.5818 24.3906 23.5818 24.7149C22.948 24.7149 22.3143 24.7149 21.6614 24.7149C21.6614 24.4002 21.6614 24.0854 21.6614 23.7611Z" fill="black"/>
<path d="M5.33799 23.7611C5.97172 23.7611 6.60545 23.7611 7.25839 23.7611C7.25839 24.0759 7.25839 24.3906 7.25839 24.7149C6.62466 24.7149 5.99092 24.7149 5.33799 24.7149C5.33799 24.4002 5.33799 24.0854 5.33799 23.7611Z" fill="black"/>
<path d="M20.7012 20.8996C21.3349 20.8996 21.9686 20.8996 22.6216 20.8996C22.6216 21.2144 22.6216 21.5291 22.6216 21.8534C21.9878 21.8534 21.3541 21.8534 20.7012 21.8534C20.7012 21.5387 20.7012 21.2239 20.7012 20.8996Z" fill="black"/>
<path d="M16.8604 20.8996C17.4941 20.8996 18.1278 20.8996 18.7808 20.8996C18.7808 21.2144 18.7808 21.5291 18.7808 21.8534C18.147 21.8534 17.5133 21.8534 16.8604 21.8534C16.8604 21.5387 16.8604 21.2239 16.8604 20.8996Z" fill="black"/>
<path d="M10.139 20.8996C10.7727 20.8996 11.4064 20.8996 12.0594 20.8996C12.0594 21.2144 12.0594 21.5291 12.0594 21.8534C11.4257 21.8534 10.7919 21.8534 10.139 21.8534C10.139 21.5387 10.139 21.2239 10.139 20.8996Z" fill="black"/>
<path d="M6.29819 20.8996C6.93192 20.8996 7.56565 20.8996 8.21859 20.8996C8.21859 21.2144 8.21859 21.5291 8.21859 21.8534C7.58485 21.8534 6.95112 21.8534 6.29819 21.8534C6.29819 21.5387 6.29819 21.2239 6.29819 20.8996Z" fill="black"/>
<path d="M19.741 18.0381C20.0578 18.0381 20.3747 18.0381 20.7012 18.0381C20.7012 18.6676 20.7012 19.2971 20.7012 19.9457C20.3843 19.9457 20.0674 19.9457 19.741 19.9457C19.741 19.3162 19.741 18.6867 19.741 18.0381Z" fill="black"/>
<path d="M8.21859 18.0381C8.53545 18.0381 8.85232 18.0381 9.17879 18.0381C9.17879 18.6676 9.17879 19.2971 9.17879 19.9457C8.86192 19.9457 8.54505 19.9457 8.21859 19.9457C8.21859 19.3162 8.21859 18.6867 8.21859 18.0381Z" fill="black"/>
<path d="M15.9002 17.0842C16.5339 17.0842 17.1676 17.0842 17.8206 17.0842C17.8206 17.399 17.8206 17.7138 17.8206 18.0381C17.1868 18.0381 16.5531 18.0381 15.9002 18.0381C15.9002 17.7233 15.9002 17.4085 15.9002 17.0842Z" fill="#FEA3B0"/>
<path d="M9.17879 17.0842C9.81252 17.0842 10.4462 17.0842 11.0992 17.0842C11.0992 17.399 11.0992 17.7138 11.0992 18.0381C10.4655 18.0381 9.83172 18.0381 9.17879 18.0381C9.17879 17.7233 9.17879 17.4085 9.17879 17.0842Z" fill="#FEA3B0"/>
<path d="M23.5818 16.1304C24.2155 16.1304 24.8492 16.1304 25.5022 16.1304C25.5022 16.4452 25.5022 16.7599 25.5022 17.0842C24.8684 17.0842 24.2347 17.0842 23.5818 17.0842C23.5818 16.7695 23.5818 16.4547 23.5818 16.1304Z" fill="black"/>
<path d="M3.41759 16.1304C4.05132 16.1304 4.68505 16.1304 5.33799 16.1304C5.33799 16.4452 5.33799 16.7599 5.33799 17.0842C4.70426 17.0842 4.07053 17.0842 3.41759 17.0842C3.41759 16.7695 3.41759 16.4547 3.41759 16.1304Z" fill="black"/>
<path d="M23.5818 14.2227C24.2155 14.2227 24.8492 14.2227 25.5022 14.2227C25.5022 14.5375 25.5022 14.8522 25.5022 15.1765C24.8684 15.1765 24.2347 15.1765 23.5818 15.1765C23.5818 14.8618 23.5818 14.547 23.5818 14.2227Z" fill="black"/>
<path d="M3.41759 14.2227C4.05132 14.2227 4.68505 14.2227 5.33799 14.2227C5.33799 14.5375 5.33799 14.8522 5.33799 15.1765C4.70426 15.1765 4.07053 15.1765 3.41759 15.1765C3.41759 14.8618 3.41759 14.547 3.41759 14.2227Z" fill="black"/>
<path d="M19.741 11.3612C20.0578 11.3612 20.3747 11.3612 20.7012 11.3612C20.7012 11.9907 20.7012 12.6203 20.7012 13.2689C20.3843 13.2689 20.0674 13.2689 19.741 13.2689C19.741 12.6393 19.741 12.0098 19.741 11.3612Z" fill="black"/>
<path d="M8.21859 11.3612C8.53545 11.3612 8.85232 11.3612 9.17879 11.3612C9.17879 11.9907 9.17879 12.6203 9.17879 13.2689C8.86192 13.2689 8.54505 13.2689 8.21859 13.2689C8.21859 12.6393 8.21859 12.0098 8.21859 11.3612Z" fill="black"/>
<path d="M20.7012 9.4535C21.3349 9.4535 21.9686 9.4535 22.6216 9.4535C22.6216 9.76827 22.6216 10.083 22.6216 10.4073C21.9878 10.4073 21.3541 10.4073 20.7012 10.4073C20.7012 10.0926 20.7012 9.77781 20.7012 9.4535Z" fill="black"/>
<path d="M16.8604 9.4535C17.4941 9.4535 18.1278 9.4535 18.7808 9.4535C18.7808 9.76827 18.7808 10.083 18.7808 10.4073C18.147 10.4073 17.5133 10.4073 16.8604 10.4073C16.8604 10.0926 16.8604 9.77781 16.8604 9.4535Z" fill="black"/>
<path d="M10.139 9.4535C10.7727 9.4535 11.4064 9.4535 12.0594 9.4535C12.0594 9.76827 12.0594 10.083 12.0594 10.4073C11.4257 10.4073 10.7919 10.4073 10.139 10.4073C10.139 10.0926 10.139 9.77781 10.139 9.4535Z" fill="black"/>
<path d="M6.29819 9.4535C6.93192 9.4535 7.56565 9.4535 8.21859 9.4535C8.21859 9.76827 8.21859 10.083 8.21859 10.4073C7.58485 10.4073 6.95112 10.4073 6.29819 10.4073C6.29819 10.0926 6.29819 9.77781 6.29819 9.4535Z" fill="black"/>
<path d="M21.6614 6.59198C22.2951 6.59198 22.9288 6.59198 23.5818 6.59198C23.5818 6.90675 23.5818 7.22152 23.5818 7.54582C22.948 7.54582 22.3143 7.54582 21.6614 7.54582C21.6614 7.23106 21.6614 6.91629 21.6614 6.59198Z" fill="black"/>
<path d="M5.33799 6.59198C5.97172 6.59198 6.60545 6.59198 7.25839 6.59198C7.25839 6.90675 7.25839 7.22152 7.25839 7.54582C6.62466 7.54582 5.99092 7.54582 5.33799 7.54582C5.33799 7.23106 5.33799 6.91629 5.33799 6.59198Z" fill="black"/>
<path d="M14.94 3.73046C15.2568 3.73046 15.5737 3.73046 15.9002 3.73046C15.9002 4.36 15.9002 4.98953 15.9002 5.63814C15.5833 5.63814 15.2664 5.63814 14.94 5.63814C14.94 5.00861 14.94 4.37907 14.94 3.73046Z" fill="black"/>
<path d="M13.0196 3.73046C13.3364 3.73046 13.6533 3.73046 13.9798 3.73046C13.9798 4.36 13.9798 4.98953 13.9798 5.63814C13.6629 5.63814 13.346 5.63814 13.0196 5.63814C13.0196 5.00861 13.0196 4.37907 13.0196 3.73046Z" fill="black"/>
<path d="M13.9798 26.6226C14.2966 26.6226 14.6135 26.6226 14.94 26.6226C14.94 26.9374 14.94 27.2522 14.94 27.5765C14.6231 27.5765 14.3062 27.5765 13.9798 27.5765C13.9798 27.2617 13.9798 26.9469 13.9798 26.6226Z" fill="black"/>
<path d="M13.9798 25.6688C14.2966 25.6688 14.6135 25.6688 14.94 25.6688C14.94 25.9836 14.94 26.2983 14.94 26.6226C14.6231 26.6226 14.3062 26.6226 13.9798 26.6226C13.9798 26.3079 13.9798 25.9931 13.9798 25.6688Z" fill="#FEB300"/>
<path d="M13.9798 23.7611C14.2966 23.7611 14.6135 23.7611 14.94 23.7611C14.94 24.0759 14.94 24.3906 14.94 24.7149C14.6231 24.7149 14.3062 24.7149 13.9798 24.7149C13.9798 24.4002 13.9798 24.0854 13.9798 23.7611Z" fill="black"/>
<path d="M23.5818 22.8073C23.8986 22.8073 24.2155 22.8073 24.542 22.8073C24.542 23.122 24.542 23.4368 24.542 23.7611C24.2251 23.7611 23.9082 23.7611 23.5818 23.7611C23.5818 23.4463 23.5818 23.1316 23.5818 22.8073Z" fill="black"/>
<path d="M22.6216 22.8073C22.9384 22.8073 23.2553 22.8073 23.5818 22.8073C23.5818 23.122 23.5818 23.4368 23.5818 23.7611C23.2649 23.7611 22.948 23.7611 22.6216 23.7611C22.6216 23.4463 22.6216 23.1316 22.6216 22.8073Z" fill="#FEB300"/>
<path d="M20.7012 22.8073C21.018 22.8073 21.3349 22.8073 21.6614 22.8073C21.6614 23.122 21.6614 23.4368 21.6614 23.7611C21.3445 23.7611 21.0276 23.7611 20.7012 23.7611C20.7012 23.4463 20.7012 23.1316 20.7012 22.8073Z" fill="black"/>
<path d="M7.25839 22.8073C7.57525 22.8073 7.89212 22.8073 8.21859 22.8073C8.21859 23.122 8.21859 23.4368 8.21859 23.7611C7.90172 23.7611 7.58485 23.7611 7.25839 23.7611C7.25839 23.4463 7.25839 23.1316 7.25839 22.8073Z" fill="black"/>
<path d="M4.37779 22.8073C4.69466 22.8073 5.01152 22.8073 5.33799 22.8073C5.33799 23.122 5.33799 23.4368 5.33799 23.7611C5.02112 23.7611 4.70426 23.7611 4.37779 23.7611C4.37779 23.4463 4.37779 23.1316 4.37779 22.8073Z" fill="black"/>
<path d="M22.6216 21.8534C22.9384 21.8534 23.2553 21.8534 23.5818 21.8534C23.5818 22.1682 23.5818 22.483 23.5818 22.8073C23.2649 22.8073 22.948 22.8073 22.6216 22.8073C22.6216 22.4925 22.6216 22.1777 22.6216 21.8534Z" fill="black"/>
<path d="M19.741 21.8534C20.0578 21.8534 20.3747 21.8534 20.7012 21.8534C20.7012 22.1682 20.7012 22.483 20.7012 22.8073C20.3843 22.8073 20.0674 22.8073 19.741 22.8073C19.741 22.4925 19.741 22.1777 19.741 21.8534Z" fill="black"/>
<path d="M8.21859 21.8534C8.53545 21.8534 8.85232 21.8534 9.17879 21.8534C9.17879 22.1682 9.17879 22.483 9.17879 22.8073C8.86192 22.8073 8.54505 22.8073 8.21859 22.8073C8.21859 22.4925 8.21859 22.1777 8.21859 21.8534Z" fill="black"/>
<path d="M5.33799 21.8534C5.65485 21.8534 5.97172 21.8534 6.29819 21.8534C6.29819 22.1682 6.29819 22.483 6.29819 22.8073C5.98132 22.8073 5.66446 22.8073 5.33799 22.8073C5.33799 22.4925 5.33799 22.1777 5.33799 21.8534Z" fill="black"/>
<path d="M18.7808 19.9457C19.0976 19.9457 19.4145 19.9457 19.741 19.9457C19.741 20.2605 19.741 20.5753 19.741 20.8996C19.4241 20.8996 19.1072 20.8996 18.7808 20.8996C18.7808 20.5848 18.7808 20.2701 18.7808 19.9457Z" fill="black"/>
<path d="M9.17879 19.9457C9.49565 19.9457 9.81252 19.9457 10.139 19.9457C10.139 20.2605 10.139 20.5753 10.139 20.8996C9.82212 20.8996 9.50525 20.8996 9.17879 20.8996C9.17879 20.5848 9.17879 20.2701 9.17879 19.9457Z" fill="black"/>
<path d="M13.0196 18.9919C13.3364 18.9919 13.6533 18.9919 13.9798 18.9919C13.9798 19.3067 13.9798 19.6214 13.9798 19.9457C13.6629 19.9457 13.346 19.9457 13.0196 19.9457C13.0196 19.631 13.0196 19.3162 13.0196 18.9919Z" fill="black"/>
<path d="M13.9798 18.0381C14.2966 18.0381 14.6135 18.0381 14.94 18.0381C14.94 18.3528 14.94 18.6676 14.94 18.9919C14.6231 18.9919 14.3062 18.9919 13.9798 18.9919C13.9798 18.6771 13.9798 18.3624 13.9798 18.0381Z" fill="black"/>
<path d="M12.0594 18.0381C12.3762 18.0381 12.6931 18.0381 13.0196 18.0381C13.0196 18.3528 13.0196 18.6676 13.0196 18.9919C12.7027 18.9919 12.3859 18.9919 12.0594 18.9919C12.0594 18.6771 12.0594 18.3624 12.0594 18.0381Z" fill="black"/>
<path d="M25.5022 15.1765C25.819 15.1765 26.1359 15.1765 26.4624 15.1765C26.4624 15.4913 26.4624 15.8061 26.4624 16.1304C26.1455 16.1304 25.8286 16.1304 25.5022 16.1304C25.5022 15.8156 25.5022 15.5008 25.5022 15.1765Z" fill="black"/>
<path d="M24.542 15.1765C24.8588 15.1765 25.1757 15.1765 25.5022 15.1765C25.5022 15.4913 25.5022 15.8061 25.5022 16.1304C25.1853 16.1304 24.8684 16.1304 24.542 16.1304C24.542 15.8156 24.542 15.5008 24.542 15.1765Z" fill="#FEB300"/>
<path d="M22.6216 15.1765C22.9384 15.1765 23.2553 15.1765 23.5818 15.1765C23.5818 15.4913 23.5818 15.8061 23.5818 16.1304C23.2649 16.1304 22.948 16.1304 22.6216 16.1304C22.6216 15.8156 22.6216 15.5008 22.6216 15.1765Z" fill="black"/>
<path d="M14.94 15.1765C15.2568 15.1765 15.5737 15.1765 15.9002 15.1765C15.9002 15.4913 15.9002 15.8061 15.9002 16.1304C15.5833 16.1304 15.2664 16.1304 14.94 16.1304C14.94 15.8156 14.94 15.5008 14.94 15.1765Z" fill="#464645"/>
<path d="M11.0992 15.1765C11.416 15.1765 11.7329 15.1765 12.0594 15.1765C12.0594 15.4913 12.0594 15.8061 12.0594 16.1304C11.7425 16.1304 11.4257 16.1304 11.0992 16.1304C11.0992 15.8156 11.0992 15.5008 11.0992 15.1765Z" fill="#464645"/>
<path d="M5.33799 15.1765C5.65485 15.1765 5.97172 15.1765 6.29819 15.1765C6.29819 15.4913 6.29819 15.8061 6.29819 16.1304C5.98132 16.1304 5.66446 16.1304 5.33799 16.1304C5.33799 15.8156 5.33799 15.5008 5.33799 15.1765Z" fill="black"/>
<path d="M4.37779 15.1765C4.69466 15.1765 5.01152 15.1765 5.33799 15.1765C5.33799 15.4913 5.33799 15.8061 5.33799 16.1304C5.02112 16.1304 4.70426 16.1304 4.37779 16.1304C4.37779 15.8156 4.37779 15.5008 4.37779 15.1765Z" fill="#FFD152"/>
<path d="M2.45739 15.1765C2.77426 15.1765 3.09112 15.1765 3.41759 15.1765C3.41759 15.4913 3.41759 15.8061 3.41759 16.1304C3.10072 16.1304 2.78386 16.1304 2.45739 16.1304C2.45739 15.8156 2.45739 15.5008 2.45739 15.1765Z" fill="black"/>
<path d="M14.94 14.2227C15.2568 14.2227 15.5737 14.2227 15.9002 14.2227C15.9002 14.5375 15.9002 14.8522 15.9002 15.1765C15.5833 15.1765 15.2664 15.1765 14.94 15.1765C14.94 14.8618 14.94 14.547 14.94 14.2227Z" fill="white"/>
<path d="M11.0992 14.2227C11.416 14.2227 11.7329 14.2227 12.0594 14.2227C12.0594 14.5375 12.0594 14.8522 12.0594 15.1765C11.7425 15.1765 11.4257 15.1765 11.0992 15.1765C11.0992 14.8618 11.0992 14.547 11.0992 14.2227Z" fill="white"/>
<path d="M18.7808 10.4073C19.0976 10.4073 19.4145 10.4073 19.741 10.4073C19.741 10.7221 19.741 11.0369 19.741 11.3612C19.4241 11.3612 19.1072 11.3612 18.7808 11.3612C18.7808 11.0464 18.7808 10.7316 18.7808 10.4073Z" fill="black"/>
<path d="M9.17879 10.4073C9.49565 10.4073 9.81252 10.4073 10.139 10.4073C10.139 10.7221 10.139 11.0369 10.139 11.3612C9.82212 11.3612 9.50525 11.3612 9.17879 11.3612C9.17879 11.0464 9.17879 10.7316 9.17879 10.4073Z" fill="black"/>
<path d="M15.9002 9.4535C16.217 9.4535 16.5339 9.4535 16.8604 9.4535C16.8604 9.76827 16.8604 10.083 16.8604 10.4073C16.5435 10.4073 16.2266 10.4073 15.9002 10.4073C15.9002 10.0926 15.9002 9.77781 15.9002 9.4535Z" fill="#FEB300"/>
<path d="M22.6216 8.49966C22.9384 8.49966 23.2553 8.49966 23.5818 8.49966C23.5818 8.81443 23.5818 9.1292 23.5818 9.4535C23.2649 9.4535 22.948 9.4535 22.6216 9.4535C22.6216 9.13874 22.6216 8.82397 22.6216 8.49966Z" fill="black"/>
<path d="M19.741 8.49966C20.0578 8.49966 20.3747 8.49966 20.7012 8.49966C20.7012 8.81443 20.7012 9.1292 20.7012 9.4535C20.3843 9.4535 20.0674 9.4535 19.741 9.4535C19.741 9.13874 19.741 8.82397 19.741 8.49966Z" fill="black"/>
<path d="M8.21859 8.49966C8.53545 8.49966 8.85232 8.49966 9.17879 8.49966C9.17879 8.81443 9.17879 9.1292 9.17879 9.4535C8.86192 9.4535 8.54505 9.4535 8.21859 9.4535C8.21859 9.13874 8.21859 8.82397 8.21859 8.49966Z" fill="black"/>
<path d="M5.33799 8.49966C5.65485 8.49966 5.97172 8.49966 6.29819 8.49966C6.29819 8.81443 6.29819 9.1292 6.29819 9.4535C5.98132 9.4535 5.66446 9.4535 5.33799 9.4535C5.33799 9.13874 5.33799 8.82397 5.33799 8.49966Z" fill="black"/>
<path d="M23.5818 7.54582C23.8986 7.54582 24.2155 7.54582 24.542 7.54582C24.542 7.86059 24.542 8.17536 24.542 8.49966C24.2251 8.49966 23.9082 8.49966 23.5818 8.49966C23.5818 8.1849 23.5818 7.87013 23.5818 7.54582Z" fill="black"/>
<path d="M22.6216 7.54582C22.9384 7.54582 23.2553 7.54582 23.5818 7.54582C23.5818 7.86059 23.5818 8.17536 23.5818 8.49966C23.2649 8.49966 22.948 8.49966 22.6216 8.49966C22.6216 8.1849 22.6216 7.87013 22.6216 7.54582Z" fill="#FEB300"/>
<path d="M20.7012 7.54582C21.018 7.54582 21.3349 7.54582 21.6614 7.54582C21.6614 7.86059 21.6614 8.17536 21.6614 8.49966C21.3445 8.49966 21.0276 8.49966 20.7012 8.49966C20.7012 8.1849 20.7012 7.87013 20.7012 7.54582Z" fill="black"/>
<path d="M7.25839 7.54582C7.57525 7.54582 7.89212 7.54582 8.21859 7.54582C8.21859 7.86059 8.21859 8.17536 8.21859 8.49966C7.90172 8.49966 7.58485 8.49966 7.25839 8.49966C7.25839 8.1849 7.25839 7.87013 7.25839 7.54582Z" fill="black"/>
<path d="M4.37779 7.54582C4.69466 7.54582 5.01152 7.54582 5.33799 7.54582C5.33799 7.86059 5.33799 8.17536 5.33799 8.49966C5.02112 8.49966 4.70426 8.49966 4.37779 8.49966C4.37779 8.1849 4.37779 7.87013 4.37779 7.54582Z" fill="black"/>
<path d="M13.9798 5.63814C14.2966 5.63814 14.6135 5.63814 14.94 5.63814C14.94 5.95291 14.94 6.26768 14.94 6.59198C14.6231 6.59198 14.3062 6.59198 13.9798 6.59198C13.9798 6.27722 13.9798 5.96245 13.9798 5.63814Z" fill="black"/>
<path d="M13.9798 4.6843C14.2966 4.6843 14.6135 4.6843 14.94 4.6843C14.94 4.99907 14.94 5.31384 14.94 5.63814C14.6231 5.63814 14.3062 5.63814 13.9798 5.63814C13.9798 5.32338 13.9798 5.00861 13.9798 4.6843Z" fill="#FFD152"/>
<path d="M13.9798 2.77662C14.2966 2.77662 14.6135 2.77662 14.94 2.77662C14.94 3.09139 14.94 3.40616 14.94 3.73046C14.6231 3.73046 14.3062 3.73046 13.9798 3.73046C13.9798 3.4157 13.9798 3.10093 13.9798 2.77662Z" fill="black"/>
</svg>
